<svg xmlns="http://www.w3.org/2000/svg" x="0px" y="0px"
width="1.2rem" height="1.2rem"
viewBox="0 0 172 172"
style=" fill:#000000;"><g fill="none" fill-rule="nonzero" stroke="none" stroke-width="1" stroke-linecap="butt" stroke-linejoin="miter" stroke-miterlimit="10" stroke-dasharray="" stroke-dashoffset="0" font-family="none" font-weight="none" font-size="none" text-anchor="none" style="mix-blend-mode: normal"><path d="M0,172v-172h172v172z" fill="none"></path><g fill="#ffffff"><path d="M81.87077,14.33333c-1.74867,0 -3.25467,1.26828 -3.54134,2.99544l-2.02963,12.21973c-3.48836,0.59963 -6.86071,1.52672 -10.10612,2.72949l-7.89453,-9.57422c-1.11083,-1.3545 -3.04382,-1.70735 -4.56315,-0.82585l-7.13867,4.12923c-1.51933,0.87433 -2.18404,2.71919 -1.56771,4.35319l4.33919,11.58984c-2.69061,2.24231 -5.17631,4.72801 -7.41862,7.41862l-11.58984,-4.33919c-1.634,-0.61633 -3.47886,0.04838 -4.35319,1.56771l-4.12923,7.13867c-0.8815,1.51933 -0.52865,3.45232 0.82585,4.56315l9.57422,7.89453c-1.20278,3.24541 -2.12986,6.61776 -2.72949,10.10612l-12.21973,2.02963c-1.72717,0.29383 -2.99544,1.7855 -2.99544,3.54134v8.25847c0,1.74867 1.26828,3.25467 2.99544,3.54134l12.21973,2.02963c0.59963,3.48836 1.52672,6.86071 2.72949,10.10612l-9.57422,7.89453c-1.3545,1.11083 -1.70018,3.04382 -0.82585,4.56315l4.12923,7.13867c0.87433,1.51933 2.71919,2.18404 4.35319,1.56771l11.58984,-4.33919c2.24231,2.69061 4.72801,5.17631 7.41862,7.41862l-4.33919,11.58985c-0.61633,1.64117 0.05554,3.47886 1.56771,4.35319l7.13867,4.12923c1.51933,0.87433 3.45232,0.52148 4.56315,-0.82585l7.88053,-9.57422c3.24917,1.20502 6.62734,2.1291 10.12011,2.72949l2.02963,12.21973c0.29383,1.72717 1.7855,2.99544 3.54134,2.99544h8.25847c1.74867,0 3.25467,-1.26828 3.54134,-2.99544l2.02963,-12.21973c3.48836,-0.59964 6.86071,-1.52671 10.10612,-2.72949l7.89453,9.57422c1.11083,1.3545 3.04382,1.70018 4.56315,0.82585l7.13867,-4.12923c1.51933,-0.87433 2.18404,-2.71919 1.56771,-4.35319l-4.33919,-11.58985c2.69061,-2.24231 5.17631,-4.72801 7.41862,-7.41862l11.58985,4.33919c1.64117,0.61633 3.47886,-0.05554 4.35319,-1.56771l4.12923,-7.13867c0.87433,-1.51933 0.52148,-3.45232 -0.82585,-4.56315l-9.57422,-7.88053c1.20502,-3.24917 2.1291,-6.62734 2.72949,-10.12011l12.21973,-2.02963c1.72717,-0.29383 2.99544,-1.7855 2.99544,-3.54134v-8.25847c0,-1.74867 -1.26828,-3.25467 -2.99544,-3.54134l-12.21973,-2.02963c-0.59964,-3.48836 -1.52671,-6.86071 -2.72949,-10.10612l9.57422,-7.89453c1.3545,-1.11083 1.70018,-3.04382 0.82585,-4.56315l-4.12923,-7.13867c-0.87433,-1.51933 -2.71919,-2.18404 -4.35319,-1.56771l-11.58985,4.33919c-2.24231,-2.69061 -4.72801,-5.17631 -7.41862,-7.41862l4.33919,-11.58984c0.61633,-1.64117 -0.05554,-3.47886 -1.56771,-4.35319l-7.13867,-4.12923c-1.51933,-0.87433 -3.45232,-0.52149 -4.56315,0.82585l-7.88053,9.57422c-3.24917,-1.20502 -6.62734,-2.1291 -10.12011,-2.72949l-2.02963,-12.21973c-0.29383,-1.72717 -1.7855,-2.99544 -3.54134,-2.99544zM78.83333,43.64388v22.19987c-8.2942,2.99107 -14.33333,10.88861 -14.33333,20.15625c0,1.3396 0.15236,2.64454 0.39193,3.91927l-19.17643,11.07194c-1.72775,-4.66901 -2.71549,-9.70481 -2.71549,-14.99121c0,-21.38431 15.44676,-38.95944 35.83333,-42.35612zM93.16667,43.64388c20.38658,3.39668 35.83333,20.97181 35.83333,42.35612c0,5.2881 -1.00068,10.32095 -2.72949,14.99121l-19.16244,-11.07194c0.23957,-1.27473 0.39193,-2.57967 0.39193,-3.91927c0,-9.26764 -6.03914,-17.16518 -14.33333,-20.15625zM86,78.83333c4.04292,0 7.16667,3.12374 7.16667,7.16667c0,4.04292 -3.12374,7.16667 -7.16667,7.16667c-4.04292,0 -7.16667,-3.12374 -7.16667,-7.16667c0,-4.04292 3.12374,-7.16667 7.16667,-7.16667zM72.15657,102.26497c3.76102,3.2118 8.56177,5.23503 13.84343,5.23503c5.28165,0 10.0824,-2.02323 13.84343,-5.23503l19.3304,11.15593c-7.87271,9.5306 -19.78201,15.5791 -33.17383,15.5791c-13.39181,0 -25.30111,-6.0485 -33.17383,-15.5791z"></path></g></g></svg>